<svg width="608" height="471" viewBox="0 0 608 471" fill="none" xmlns="http://www.w3.org/2000/svg">
<path d="M528.801 470.491C495.499 464.557 437.615 434.251 472.496 360.498C516.099 268.306 510.937 264.074 377.647 215.723C244.358 167.373 227 98.0001 266.749 65.2986C300.544 37.4951 394.949 54.603 363.548 142.357C332.146 230.112 122.933 215.971 68.6572 46.9913" stroke="url(#paint0_linear_92_155)"/>
<path fill-rule="evenodd" clip-rule="evenodd" d="M73.7679 87.7412L70.7721 87.899L69.3451 60.8046C68.9339 60.7535 68.5312 60.6728 68.1394 60.5647L56.2508 83.6569L53.5836 82.2837L65.4339 59.2659C65.0684 59.0022 64.7243 58.7099 64.4051 58.3923L42.4003 73.3708L40.7122 70.8908L62.6843 55.9346C62.3671 55.2483 62.1382 54.511 62.0129 53.7367L34.9501 54.8142L34.8308 51.8166L62.06 50.7325C62.1539 50.2516 62.2887 49.7845 62.4606 49.3351L37.9114 37.104L39.2492 34.4189L64.0174 46.759C64.3181 46.4168 64.646 46.0987 64.998 45.8082L48.9949 22.6507L51.4629 20.9452L67.6255 44.3335C67.899 44.2391 68.179 44.1582 68.4649 44.0916L66.9853 15.9986L69.9811 15.8409L71.4607 43.9338C72.0361 44.0053 72.5948 44.1347 73.1304 44.3163L86.5403 18.2692L89.2076 19.6424L75.7575 45.7677C76.0362 45.9939 76.3006 46.2376 76.5488 46.4972L100.232 30.3763L101.92 32.8563L78.2079 48.9969C78.358 49.3442 78.4857 49.704 78.5892 50.0743L106.774 48.9521L106.893 51.9498L78.8754 53.0653C78.8473 53.4124 78.7982 53.754 78.7293 54.0888L103.694 66.5266L102.356 69.2118L77.6072 56.8814C77.4042 57.2049 77.18 57.514 76.9363 57.8067L92.3958 80.1777L89.9278 81.8833L74.6297 59.7459C73.9258 60.15 73.157 60.4567 72.3409 60.6468L73.7679 87.7412Z" fill="#83A17D"/>
<defs>
<linearGradient id="paint0_linear_92_155" x1="-9.10629" y1="-78.5935" x2="484.003" y2="406.906" gradientUnits="userSpaceOnUse">
<stop/>
<stop offset="0.553176" stop-color="white"/>
<stop offset="1" stop-opacity="0"/>
</linearGradient>
</defs>
</svg>
